# xmcd
# 
# Track frame offsets:
#     150
#     26205
#     58776
#     77533
#     103560
#     117283
#     146790
#     167637
#     193805
#     215483
#     236593
# 
# Disc length: 3562
# 
# Revision: 2
# Processed by: cddbd v1.5.2PL0 Copyright (c) Steve Scherf et al.
# Submitted via: fre:ac v1.0.27
# 
DISCID=9c0de80b
DTITLE=Das Dritte Ohr - Der Duft Der Nacht
DYEAR=1998
DGENRE=Blues
TTITLE0=Rosalie
TTITLE1=Das alte Leid
TTITLE2=Schlangenfrau
TTITLE3=Luise
TTITLE4=Gruß an die Mutter
TTITLE5=Getränksmann-Blues
TTITLE6=Süße, sag
TTITLE7=Hast Du?
TTITLE8=Böses ist dem Blues passiert
TTITLE9=Mardi Gras
TTITLE10=Ain't Gonna Write No More Rubbish
EXTD=
EXTT0=
EXTT1=
EXTT2=
EXTT3=
EXTT4=
EXTT5=
EXTT6=
EXTT7=
EXTT8=
EXTT9=
EXTT10=
PLAYORDER=
